<?xml version="1.0" standalone="no"?><!DOCTYPE svg PUBLIC "-//W3C//DTD SVG 1.1//EN" "http://www.w3.org/Graphics/SVG/1.1/DTD/svg11.dtd"><svg t="1634030943569" class="icon" viewBox="0 0 1024 1024" version="1.1" xmlns="http://www.w3.org/2000/svg" p-id="1071" xmlns:xlink="http://www.w3.org/1999/xlink" width="200" height="200"><defs><style type="text/css"></style></defs><path d="M787.65225493 447.26395307H359.35394133V269.06256853c0-86.12206293 70.06906453-156.19112747 156.19112747-156.19112746S671.720784 182.9405056 671.720784 269.06256853a46.24003413 46.24003413 0 0 0 92.4800672 0c0-137.1171136-111.55408213-248.67119573-248.66348907-248.67119573-137.1171136 0-248.67119573 111.55408213-248.67119466 248.67119573v178.20138454h-23.44369707a46.24003413 46.24003413 0 0 0-46.24003413 46.24003306v467.1630624a46.24003413 46.24003413 0 0 0 46.24003413 46.24003414h544.22978453a46.24003413 46.24003413 0 0 0 46.24003414-46.24003414V493.50398613a46.24003413 46.24003413 0 0 0-46.24003414-46.24003306z" fill="#606266" p-id="1072"></path></svg>