<?xml version="1.0" standalone="no"?><!DOCTYPE svg PUBLIC "-//W3C//DTD SVG 1.1//EN" "http://www.w3.org/Graphics/SVG/1.1/DTD/svg11.dtd"><svg t="1641959423109" class="icon" viewBox="0 0 1024 1024" version="1.1" xmlns="http://www.w3.org/2000/svg" p-id="3831" xmlns:xlink="http://www.w3.org/1999/xlink" width="200" height="200"><defs><style type="text/css"></style></defs><path d="M128 64a64 64 0 0 0-64 64v760a64 64 0 0 0 94.72 56.128l293.44-160.384a128 128 0 0 1 123.072 0.192l289.92 159.424A64 64 0 0 0 960 887.296V128a64 64 0 0 0-64-64H128z m0-64h768a128 128 0 0 1 128 128v759.296a128 128 0 0 1-189.696 112.192l-289.92-159.488a64 64 0 0 0-61.504-0.064L189.376 1000.32A128 128 0 0 1 0 888V128a128 128 0 0 1 128-128z" fill="#2c2c2c" p-id="3832"></path><path d="M467.328 563.328a96 96 0 0 1 89.344 0l63.36 33.28-12.16-70.464a96 96 0 0 1 27.648-84.992l51.2-49.92-100.736-14.656a38.4 38.4 0 0 1-28.928-20.992L512 264.32l-45.056 91.264a38.4 38.4 0 0 1-28.928 20.992l-100.736 14.72 72.96 71.04a38.4 38.4 0 0 1 11.008 33.92l-17.28 100.352 63.36-33.28z m279.936-227.968a38.4 38.4 0 0 1 21.248 65.472l-88.32 86.144a32 32 0 0 0-9.216 28.352l20.864 121.6a38.4 38.4 0 0 1-55.68 40.448l-109.248-57.408a32 32 0 0 0-29.824 0l-109.184 57.408a38.4 38.4 0 0 1-55.68-40.448l23.68-138.24-100.48-97.856a38.4 38.4 0 0 1 21.312-65.472l138.752-20.16 62.08-125.76a38.4 38.4 0 0 1 68.864 0l62.08 125.76 138.752 20.16z" fill="#2c2c2c" p-id="3833"></path></svg>