<?xml version="1.0" standalone="no"?><!DOCTYPE svg PUBLIC "-//W3C//DTD SVG 1.1//EN" "http://www.w3.org/Graphics/SVG/1.1/DTD/svg11.dtd"><svg t="1641961129976" class="icon" viewBox="0 0 1024 1024" version="1.1" xmlns="http://www.w3.org/2000/svg" p-id="4234" xmlns:xlink="http://www.w3.org/1999/xlink" width="200" height="200"><defs><style type="text/css"></style></defs><path d="M543.488 797.909333c-35.456-69.76-77.013333-140.245333-158.208-140.245333a110.933333 110.933333 0 0 0-45.184 8.917333l-27.562667-54.997333c33.536-28.928 87.808-51.797333 157.568-51.797333 108.544 0 164.309333 52.437333 208.554667 119.125333 26.154667-56.96 38.570667-133.973333 38.570667-229.333333 0-238.165333-74.410667-360.405333-248.405334-360.405334-171.434667 0-245.632 122.24-245.632 360.405334 0 236.928 74.197333 357.930667 245.632 357.930666 27.306667 0 52.053333-2.944 74.666667-9.6z m42.496 83.072c-37.589333 10.112-77.525333 15.616-117.034667 15.616-228.352 0-451.84-182.144-451.84-447.061333C17.152 182.229333 240.597333 0 468.949333 0c232.149333 0 453.461333 180.821333 453.461334 449.578667 0 149.504-69.76 270.976-171.093334 349.482666 32.597333 48.981333 65.834667 81.664 113.152 81.664 51.157333 0 71.68-39.04 75.52-70.357333h66.432c3.925333 41.557333-17.152 213.632-203.349333 213.632-113.152 0-172.672-65.194667-217.429333-141.994667l0.341333-1.024z" p-id="4235" fill="#606266"></path></svg>