<?xml version="1.0" standalone="no"?><!DOCTYPE svg PUBLIC "-//W3C//DTD SVG 1.1//EN" "http://www.w3.org/Graphics/SVG/1.1/DTD/svg11.dtd"><svg t="1642491728629" class="icon" viewBox="0 0 1024 1024" version="1.1" xmlns="http://www.w3.org/2000/svg" p-id="1139" xmlns:xlink="http://www.w3.org/1999/xlink" width="200" height="200"><defs><style type="text/css"></style></defs><path d="M586.24 374.72c13.44 0 24.42666667-10.88 24.42666667-24.42666667s-10.88-24.42666667-24.42666667-24.42666666-24.42666667 10.88-24.42666667 24.42666666 10.98666667 24.42666667 24.42666667 24.42666667zM975.25333333 561.06666667L814.29333333 400.21333333c-31.78666667-31.78666667-83.2-31.78666667-114.88 0l-7.14666666 7.14666667V477.86666667h-0.21333334c0.10666667 1.06666667 0.21333333 2.13333333 0.21333334 3.2 0 13.54666667-10.98666667 24.53333333-24.53333334 24.53333333-1.49333333 0-2.88-0.10666667-4.26666666-0.42666667v0.42666667H360.64c-3.30666667-0.53333333-6.61333333-0.74666667-10.02666667-0.74666667-35.94666667 0-64.96 29.12-64.96 65.06666667 0 2.02666667 0.10666667 4.05333333 0.32 6.08v52.8c-12.48 7.36-28.8 5.76-39.57333333-5.01333333l-160.96-161.06666667c-12.69333333-12.69333333-12.69333333-33.28 0-45.97333333l160.85333333-160.96c10.77333333-10.77333333 27.09333333-12.37333333 39.57333334-5.01333334v52.58666667c-0.21333333 2.02666667-0.32 4.16-0.32 6.29333333 0 35.94666667 29.12 65.06666667 64.96 65.06666667 2.34666667 0 4.58666667-0.10666667 6.82666666-0.32h139.73333334c13.01333333-0.32 23.46666667-10.88 23.46666666-24s-10.45333333-23.68-23.46666666-24H362.66666667v-0.42666667c-1.38666667 0.21333333-2.77333333 0.42666667-4.26666667 0.42666667-13.54666667 0-24.53333333-10.98666667-24.53333333-24.53333333 0-1.49333333 0.10666667-2.88 0.42666666-4.26666667h-0.42666666v-69.12l-7.14666667-7.14666667c-31.78666667-31.78666667-83.2-31.78666667-114.88 0L50.98666667 382.29333333c-31.78666667 31.78666667-31.78666667 83.2 0 114.98666667L211.84 658.13333333c31.78666667 31.78666667 83.2 31.78666667 114.88 0l7.14666667-7.14666666V572.8h0.42666666c1.6-9.17333333 8.32-16.53333333 17.06666667-19.2h14.18666667c0.42666667 0.10666667 0.85333333 0.21333333 1.38666666 0.42666667v-0.42666667h309.33333334c35.62666667-0.32 64.32-29.33333333 64.32-64.96 0-2.34666667-0.10666667-4.58666667-0.32-6.82666667v-52.05333333c12.48-7.46666667 28.90666667-5.76 39.57333333 5.01333333l160.85333333 160.96c12.69333333 12.69333333 12.69333333 33.28 0 45.97333334L779.84 802.45333333C769.06666667 813.22666667 752.74666667 814.93333333 740.26666667 807.46666667v-35.73333334c0.21333333-2.24 0.32-4.48 0.32-6.82666666 0-35.94666667-29.12-65.06666667-64.96-65.06666667H418.66666667c-0.85333333-0.10666667-1.81333333-0.10666667-2.66666667-0.10666667-13.54666667 0-24.53333333 10.98666667-24.53333333 24.53333334s10.98666667 24.53333333 24.53333333 24.53333333c0.85333333 0 1.81333333 0 2.66666667-0.10666667h240.74666666v0.53333334c0.53333333-0.21333333 1.17333333-0.42666667 1.70666667-0.53333334h13.33333333c10.34666667 2.88 17.92 12.37333333 17.92 23.57333334 0 1.06666667-0.10666667 2.13333333-0.21333333 3.2h0.21333333v54.4l7.14666667 7.14666666c31.78666667 31.78666667 83.2 31.78666667 114.88 0l160.85333333-160.96c31.68-31.78666667 31.68-83.2 0-114.98666666zM889.49333333 295.36C812.8 167.57333333 672.85333333 82.13333333 513.06666667 82.13333333c-45.01333333 0-88.42666667 6.82666667-129.38666667 19.41333334l0.64 1.06666666c-7.25333333 4.26666667-12.05333333 12.16-12.05333333 21.12 0 13.54666667 10.98666667 24.53333333 24.53333333 24.53333334 4.48 0 8.74666667-1.17333333 12.37333333-3.30666667 33.06666667-9.17333333 67.94666667-13.97333333 104-13.97333333 141.44 0 265.28 75.30666667 333.65333334 187.94666666 3.73333333 8.85333333 12.48 14.93333333 22.61333333 14.93333334 13.54666667 0 24.53333333-10.98666667 24.53333333-24.53333334-0.10666667-5.22666667-1.70666667-10.02666667-4.48-13.97333333zM627.2 894.93333333c-4.58666667 0-8.96 1.28-12.58666667 3.52l-0.32-0.42666666c-32.32 8.64-66.24 13.22666667-101.22666666 13.22666666-145.38666667 0-272.21333333-79.57333333-339.30666667-197.65333333-3.2-9.92-12.48-17.06666667-23.36-17.06666667-13.54666667 0-24.53333333 10.98666667-24.53333333 24.53333334 0 4.26666667 1.06666667 8.32 3.09333333 11.84l-0.21333333 0.10666666C203.52 868.26666667 347.62666667 960 513.06666667 960c43.94666667 0 86.4-6.50666667 126.4-18.45333333l-0.32-0.64c7.46666667-4.16 12.58666667-12.26666667 12.58666666-21.44 0-13.54666667-10.98666667-24.53333333-24.53333333-24.53333334z" p-id="1140" fill="#409eff"></path></svg>